<svg width="18" height="19" viewBox="0 0 18 19" fill="none" xmlns="http://www.w3.org/2000/svg">
<path d="M15.7181 15.0812C16.6157 14.0013 17.24 12.721 17.5381 11.3488C17.8363 9.97658 17.7996 8.55273 17.4311 7.19771C17.0625 5.84268 16.3731 4.59634 15.421 3.56412C14.469 2.5319 13.2823 1.74417 11.9614 1.26756C10.6405 0.790955 9.22428 0.639495 7.83248 0.825995C6.44067 1.0125 5.11426 1.53147 3.96545 2.33901C2.81664 3.14655 1.87922 4.21891 1.2325 5.46537C0.585774 6.71182 0.248773 8.0957 0.250003 9.49995C0.250529 11.5413 0.969891 13.5173 2.28188 15.0812L2.26938 15.0918C2.31313 15.1443 2.36313 15.1893 2.40813 15.2412C2.46438 15.3056 2.525 15.3662 2.58313 15.4287C2.75729 15.6191 2.93854 15.8004 3.12688 15.9724C3.18521 16.0241 3.24354 16.0745 3.30188 16.1237C3.50188 16.2966 3.70813 16.4595 3.92063 16.6124C3.94813 16.6312 3.97313 16.6556 4.00063 16.6749V16.6674C5.46441 17.6976 7.21067 18.2505 9.00063 18.2505C10.7906 18.2505 12.5368 17.6976 14.0006 16.6674V16.6749C14.0281 16.6556 14.0525 16.6312 14.0806 16.6124C14.2931 16.4591 14.4994 16.2962 14.6994 16.1237C14.7577 16.0741 14.816 16.0237 14.8744 15.9724C15.0623 15.8004 15.2435 15.6191 15.4181 15.4287C15.4763 15.3662 15.5363 15.3056 15.5931 15.2412C15.6375 15.1893 15.6881 15.1443 15.7319 15.0912L15.7181 15.0812ZM9 4.49995C9.55626 4.49995 10.1 4.6649 10.5625 4.97394C11.0251 5.28298 11.3855 5.72223 11.5984 6.23615C11.8113 6.75007 11.867 7.31557 11.7585 7.86114C11.6499 8.40671 11.3821 8.90785 10.9887 9.30118C10.5954 9.69452 10.0943 9.96238 9.5487 10.0709C9.00312 10.1794 8.43762 10.1237 7.92371 9.91086C7.40979 9.69798 6.97054 9.3375 6.6615 8.87499C6.35245 8.41247 6.1875 7.86871 6.1875 7.31245C6.1875 6.56652 6.48382 5.85115 7.01127 5.32371C7.53871 4.79626 8.25408 4.49995 9 4.49995ZM4.00438 15.0812C4.01522 14.2606 4.34872 13.4772 4.93273 12.9005C5.51673 12.3239 6.30429 12.0004 7.125 11.9999H10.875C11.6957 12.0004 12.4833 12.3239 13.0673 12.9005C13.6513 13.4772 13.9848 14.2606 13.9956 15.0812C12.6249 16.3164 10.8452 17 9 17C7.15484 17 5.3751 16.3164 4.00438 15.0812Z" fill="#00729B"/>
</svg>
