<svg width="28" height="28" viewBox="0 0 28 28" fill="none" xmlns="http://www.w3.org/2000/svg">
<path fill-rule="evenodd" clip-rule="evenodd" d="M14.0001 0.666504C15.751 0.666496 17.4848 1.01137 19.1025 1.68142C20.7202 2.35148 22.1901 3.33361 23.4282 4.57172C24.6663 5.80983 25.6484 7.27969 26.3185 8.89736C26.9886 10.515 27.3334 12.2489 27.3334 13.9998C27.3334 21.3636 21.3639 27.3332 14.0001 27.3332C6.63631 27.3332 0.666748 21.3636 0.666748 13.9998C0.666748 6.63607 6.63631 0.666504 14.0001 0.666504ZM15.3334 15.3332H12.6667C9.36581 15.3332 6.53187 17.3324 5.30956 20.1862C7.24356 22.8981 10.4153 24.6665 14.0001 24.6665C17.5848 24.6665 20.7566 22.8981 22.6906 20.186C21.4683 17.3324 18.6344 15.3332 15.3334 15.3332ZM14.0001 4.6665C11.7909 4.6665 10.0001 6.45738 10.0001 8.6665C10.0001 10.8756 11.7909 12.6665 14.0001 12.6665C16.2092 12.6665 18.0001 10.8756 18.0001 8.6665C18.0001 6.45738 16.2092 4.6665 14.0001 4.6665Z" fill="white"/>
</svg>
