<svg width="10" height="6" viewBox="0 0 10 6" fill="none" xmlns="http://www.w3.org/2000/svg">
<path fill-rule="evenodd" clip-rule="evenodd" d="M5.74797 5.6959C5.55123 5.89062 5.28454 6 5.00648 6C4.72843 6 4.46174 5.89062 4.265 5.6959L0.307174 1.77507C0.110428 1.58 -6.55626e-05 1.31547 2.9186e-08 1.03967C6.5621e-05 0.763865 0.110685 0.499386 0.307523 0.30441C0.504362 0.109435 0.771296 -6.49727e-05 1.0496 2.89233e-08C1.32791 6.50306e-05 1.59479 0.109689 1.79153 0.304757L5.00648 3.49078L8.22144 0.304757C8.41924 0.11525 8.68424 0.0103159 8.95935 0.0125557C9.23447 0.0147954 9.49769 0.124029 9.69233 0.316731C9.88696 0.509433 9.99744 0.770184 9.99996 1.04282C10.0025 1.31546 9.89684 1.57817 9.7058 1.77438L5.74867 5.69659L5.74797 5.6959Z" fill="#00729B"/>
</svg>
